<?xml version="1.0" standalone="no"?>
<!DOCTYPE svg PUBLIC "-//W3C//DTD SVG 20010904//EN"
 "http://www.w3.org/TR/2001/REC-SVG-20010904/DTD/svg10.dtd">
<svg version="1.0" xmlns="http://www.w3.org/2000/svg"
 width="152.000000pt" height="152.000000pt" viewBox="0 0 152.000000 152.000000"
 preserveAspectRatio="xMidYMid meet">
<metadata>
Created by potrace 1.14, written by Peter Selinger 2001-2017
</metadata>
<g transform="translate(0.000000,152.000000) scale(0.100000,-0.100000)"
fill="#000000" stroke="none">
<path d="M80 1220 c0 -17 -7 -20 -40 -20 l-40 0 0 -120 c0 -113 1 -120 20
-120 17 0 20 -7 20 -40 0 -33 3 -40 20 -40 13 0 20 -7 20 -20 0 -13 7 -20 20
-20 13 0 20 -7 20 -20 0 -13 7 -20 20 -20 13 0 20 -7 20 -20 0 -13 7 -20 20
-20 18 0 20 -7 20 -80 0 -73 2 -80 20 -80 13 0 20 -7 20 -20 0 -13 7 -20 20
-20 13 0 20 -7 20 -20 0 -17 7 -20 40 -20 33 0 40 -3 40 -20 0 -13 7 -20 20
-20 13 0 20 -7 20 -20 0 -17 7 -20 40 -20 33 0 40 -3 40 -20 0 -17 7 -20 40
-20 33 0 40 -3 40 -20 0 -18 7 -20 60 -20 53 0 60 -2 60 -20 0 -19 7 -20 220
-20 213 0 220 1 220 20 0 19 7 20 180 20 173 0 180 1 180 20 0 13 7 20 20 20
19 0 20 7 20 120 0 113 -1 120 -20 120 -17 0 -20 7 -20 40 0 33 -3 40 -20 40
-13 0 -20 7 -20 20 0 13 -7 20 -20 20 -13 0 -20 7 -20 20 0 13 -7 20 -20 20
-13 0 -20 7 -20 20 0 13 -7 20 -20 20 -13 0 -20 7 -20 20 0 13 -7 20 -20 20
-13 0 -20 7 -20 20 0 17 -7 20 -40 20 -33 0 -40 3 -40 20 0 13 -7 20 -20 20
-13 0 -20 7 -20 20 0 17 -7 20 -40 20 -33 0 -40 3 -40 20 0 17 -7 20 -40 20
-33 0 -40 3 -40 20 0 17 -7 20 -40 20 -33 0 -40 3 -40 20 0 17 -7 20 -40 20
-33 0 -40 3 -40 20 0 18 -7 20 -60 20 -53 0 -60 2 -60 20 0 18 -7 20 -60 20
-53 0 -60 2 -60 20 0 19 -7 20 -260 20 -253 0 -260 -1 -260 -20z"/>
</g>
</svg>
